<?xml version="1.0" encoding="utf-8"?>
<!-- Generator: Adobe Illustrator 15.1.0, SVG Export Plug-In . SVG Version: 6.00 Build 0)  -->
<!DOCTYPE svg PUBLIC "-//W3C//DTD SVG 1.1//EN" "http://www.w3.org/Graphics/SVG/1.1/DTD/svg11.dtd">
<svg version="1.1" xmlns="http://www.w3.org/2000/svg" xmlns:xlink="http://www.w3.org/1999/xlink" x="0px" y="0px" width="100px"
	 height="100px" viewBox="0 0 100 100" enable-background="new 0 0 100 100" xml:space="preserve">
<polygon points="39.535,3.474 39.207,5.65 40.763,5.307 "/>
<polygon points="30.828,8.593 29.214,7.089 29.391,9.281 "/>
<polygon points="21.257,14.556 19.328,13.486 20.034,15.571 "/>
<path d="M17.334,20.646c0.153-0.038,0.324-0.156,0.51-0.357c0.214-0.229,0.363-0.47,0.444-0.721c0.079-0.247,0.097-0.492,0.05-0.738
	c-0.047-0.253-0.146-0.499-0.3-0.743c-0.152-0.236-0.36-0.479-0.623-0.726c-0.26-0.243-0.526-0.424-0.801-0.553
	c-0.277-0.128-0.553-0.197-0.833-0.209c-0.267-0.014-0.526,0.031-0.785,0.131C14.743,16.838,14.511,17,14.3,17.226
	c-0.067,0.073-0.144,0.159-0.23,0.257c-0.086,0.094-0.147,0.168-0.188,0.212l2.973,2.776C17.021,20.625,17.18,20.684,17.334,20.646z
	"/>
<path d="M88.576,28.597c-0.211,0.333-0.228,0.662-0.06,0.983c0.172,0.324,0.456,0.493,0.851,0.504
	c0.394,0.015,0.84-0.11,1.334-0.372c0.525-0.278,0.88-0.583,1.075-0.917c0.191-0.329,0.206-0.651,0.046-0.956
	c-0.165-0.315-0.441-0.482-0.822-0.51c-0.386-0.028-0.839,0.096-1.36,0.374C89.141,27.965,88.789,28.264,88.576,28.597z"/>
<path d="M70.639,90.395c-0.104-0.139-0.208-0.252-0.316-0.33c-0.115-0.089-0.238-0.142-0.37-0.164
	c-0.131-0.021-0.266,0.001-0.403,0.069c-0.143,0.068-0.249,0.166-0.313,0.286c-0.067,0.117-0.102,0.254-0.104,0.407
	c-0.005,0.143,0.018,0.291,0.062,0.447c0.047,0.157,0.104,0.305,0.172,0.438c0.084,0.177,0.181,0.337,0.283,0.471
	c0.103,0.14,0.212,0.251,0.336,0.336c0.12,0.09,0.244,0.144,0.373,0.165c0.13,0.021,0.264-0.003,0.404-0.075
	c0.232-0.111,0.361-0.312,0.386-0.604c0.027-0.29-0.056-0.632-0.25-1.026C70.829,90.676,70.742,90.535,70.639,90.395z"/>
<path d="M85.989,24.48c-0.173,0.353-0.157,0.683,0.048,0.983c0.206,0.302,0.508,0.438,0.897,0.41
	c0.396-0.03,0.823-0.204,1.291-0.521c0.487-0.332,0.81-0.673,0.966-1.022c0.156-0.353,0.137-0.672-0.06-0.959
	c-0.199-0.293-0.49-0.43-0.877-0.416c-0.382,0.014-0.819,0.188-1.307,0.521C86.48,23.793,86.16,24.125,85.989,24.48z"/>
<path d="M13.266,49.458c0.513-0.957,0.589-2.424,0.073-3.087c-0.46-0.593-0.919-2.125-1.008-3.021
	c-0.011-0.104,0.052-0.333-0.018-0.284c-0.514,0.364,0.144,3.6,0.217,4.334c0.074,0.735-0.587,1.246-0.589,2.498
	c-0.292-0.076-1.104,2.864-0.372,5.216C11.35,53.864,12.749,50.411,13.266,49.458z"/>
<path d="M17.161,46.961c-0.293-0.368-0.293-0.809-0.44-1.69c-0.073,0.957-0.147,2.793,0.143,4.333
	c0.294,1.545-0.881,2.575-1.547,4.335c-0.292-0.222-0.881-0.735-0.88,0.882c-0.37-0.368-0.881-1.177-0.955-3.088
	c-0.295,0.954-0.516,1.909-0.296,3.16c0.221,1.25-0.148,1.396,0.146,2.866c0.292,1.47-0.078,3.527-0.151,4.922
	c0.367-0.072,0.882-0.587,0.883-1.616c0-1.027,0.588-1.835,0.734-3.012c0,0.587,0.664,1.397,0.955,2.72
	c0.148-0.585,0.298-2.72,0.003-3.525c0.295-0.294,0.15-2.5,0.885-3.306c0.735-0.809,1.768-5.658,1.547-6.464
	c-0.218-0.809-0.291-3.013,0.225-4.63C18.413,42.848,16.941,45.564,17.161,46.961z"/>
<path d="M50.041,0C22.469-0.021,0.021,22.39,0,49.961c-0.012,15.135,6.747,28.715,17.398,37.9c0.222,0.231,0.447,0.42,0.647,0.578
	c-0.002-0.006,0-0.012-0.002-0.016c8.661,7.213,19.789,11.567,31.92,11.576C77.53,100.021,99.979,77.609,100,50.038
	C100.021,22.47,77.609,0.022,50.041,0z M90.799,26.705c0.245,0.049,0.478,0.162,0.692,0.329c0.216,0.17,0.4,0.397,0.553,0.682
	c0.157,0.301,0.244,0.588,0.261,0.857c0.01,0.268-0.031,0.521-0.128,0.757c-0.098,0.228-0.238,0.438-0.431,0.63
	c-0.191,0.189-0.408,0.35-0.659,0.481c-0.298,0.157-0.588,0.257-0.869,0.298c-0.28,0.038-0.542,0.025-0.777-0.043
	c-0.241-0.069-0.459-0.188-0.651-0.354c-0.195-0.17-0.355-0.382-0.495-0.64c-0.15-0.286-0.237-0.563-0.26-0.836
	c-0.023-0.272,0.011-0.52,0.101-0.745c0.095-0.237,0.238-0.45,0.431-0.645c0.192-0.191,0.42-0.359,0.686-0.501
	c0.264-0.139,0.522-0.231,0.778-0.278C90.285,26.649,90.544,26.653,90.799,26.705z M87.991,22.355
	c0.25,0.024,0.491,0.105,0.724,0.25c0.234,0.145,0.442,0.352,0.624,0.618c0.192,0.284,0.31,0.555,0.352,0.822
	c0.043,0.266,0.028,0.521-0.044,0.765c-0.067,0.239-0.188,0.466-0.355,0.673c-0.171,0.209-0.371,0.394-0.604,0.551
	c-0.277,0.192-0.559,0.321-0.833,0.391c-0.273,0.069-0.533,0.086-0.775,0.044c-0.248-0.042-0.479-0.135-0.687-0.28
	c-0.211-0.145-0.397-0.342-0.564-0.583c-0.18-0.268-0.295-0.533-0.348-0.8c-0.054-0.269-0.047-0.519,0.018-0.754
	c0.071-0.244,0.189-0.474,0.358-0.687c0.17-0.212,0.377-0.404,0.627-0.573c0.246-0.169,0.491-0.285,0.742-0.362
	C87.474,22.357,87.728,22.33,87.991,22.355z M55.886,39.083l-0.424-0.076l-0.012,0.062c-0.995-0.032-2.47-0.098-3.827-0.2
	c0.639-0.309,1.26-0.555,1.842-0.694c1.371-0.334,3.48-0.196,5.764,0.189c-1.242,0.424-2.349,0.73-2.719,0.73
	C56.389,39.094,56.17,39.09,55.886,39.083z M54.655,43.406c-0.911,0.034-2.009,0.045-2.3,0.02c-0.402-0.037-1.321-2.095-2.165-2.5
	c-0.392-0.188-1.092-0.207-1.799-0.135c0.333-0.228,0.665-0.446,1.001-0.659c1.719,0.389,3.646,0.745,4.692,0.504
	c0.302-0.07,0.688-0.153,1.123-0.245L54.655,43.406z M57.909,36.709c-4.024-0.406-7.365,0.152-10.337,1.527
	c-0.776-0.13-1.612-0.208-2.369-0.381c0.915-1.237,2.098-2.639,2.422-3.139c0.553-0.846,2.094-1.137,3.601-1.098
	c1.506,0.034,6.761-0.143,7.937-0.621c1.174-0.477,1.836-0.365,2.386-0.032c0.371,0.223,2.771,1.158,4.704,1.85
	c-1.201,0.695-2.216,1.293-2.646,1.64c-0.338,0.268-1.055,0.621-1.909,0.981C60.434,37.092,59.142,36.832,57.909,36.709z
	 M22.604,37.966c0.552-0.81,0.773-2.315,0.849-3.049c0.073-0.734,0.478-2.276,1.359-3.598c0.884-1.323,3.419-2.643,4.007-3.049
	c0.587-0.403,1.692-1.502,2.354-2.089c0.664-0.588,1.691-1.983,2.648-2.498c0.873-0.468,1.801-1.123,2.151-1.764
	c1.451-0.771,4.217-2.129,4.916-2.663c0.834-0.637,3.04-2.35,4.606-2.396c1.566-0.047,4.459-1.761,5.586-2.054
	c0.343,0.294,3.869,1.23,5.044,1.13c0.137-0.012,0.305,0.004,0.491,0.032c-0.906,0.698-1.701,1.307-1.962,1.486
	c-0.637,0.44-1.665,0.293-2.105,1.173c-0.442,0.882-2.845,2.399-3.382,2.985c-0.353,0.383-1.433,0.352-2.887,0.497
	c-0.002-0.01,0.002-0.022-0.004-0.032c-0.184-0.368,1.434-1.763,1.471-2.166c0.039-0.405,1.358-0.955,1.359-1.212
	c0-0.255,0.185-1.138,0.811-1.91c-0.478,0.11-1.067,0.661-1.25,1.285c-0.185,0.622-1.58,1.028-1.801,1.836
	c-0.191,0.701-1.408,1.786-2.35,2.472c-0.273,0.056-0.551,0.125-0.836,0.206c-2.695,0.782-5.095,2.936-5.833,4.062
	c-0.633,0.971-2.729,2.889-4.522,4.089c-1.87,0.578-3.178,1.387-3.956,2.567c-0.919,1.394-3.75,5.544-4.744,6.754
	c-0.536,0.651-1.382,1.527-2.038,2.511c-0.02-0.004-0.044-0.008-0.059-0.013c-0.404-0.149-0.182-1.361-0.108-2.168
	C22.492,39.581,22.052,38.771,22.604,37.966z M36.104,14.097c0.184,0.809,0.44,2.462,0.072,2.865
	c-0.368,0.404-0.993,1.689-1.178,2.535c-0.182,0.844-0.369,0.109-1.36,1.689c-0.992,1.577-2.241,2.496-3.089,3.156
	c-0.843,0.661-0.809,1.174-3.455,2.824c-0.29,0.182-0.563,0.379-0.832,0.578c-0.177-1.079,1.499-4.409,1.496-5.021
	c0.004-0.639,1.525-4.75,2.113-5.777c0.293-0.517,0.864-2.298,1.366-3.999c1.64-0.834,3.341-1.563,5.099-2.177
	C35.788,12.229,35.926,13.304,36.104,14.097z M61.171,16.429c-0.214,0.108-1.36-0.166-2.733-0.561
	c1.055-0.905,2.029-1.75,2.246-1.985c0.492-0.539,2.447-0.881,3.185-1.123c0.31-0.105,0.784-0.733,1.233-1.457
	c1.655,0.648,3.27,1.394,4.816,2.244c-0.53,0.145-0.97,0.268-1.188,0.354c-0.848,0.331-1.729,0.807-2.062,1.726
	c-0.328,0.917-2.793,3.634-3.454,4.333c-0.662,0.697-2.976,1.024-3.896,1.684c-0.918,0.663-1.912,0.846-2.977,1.506
	c-1.069,0.66-2.354,1.062-2.648,1.688c-0.126,0.269-0.464,0.86-0.838,1.555c-0.203,0.034-0.397,0.068-0.558,0.098
	c-1.029,0.181-5.072,0.619-7.312,0.362c-2.241-0.261-3.011,0.877-3.859,1.539c-0.387,0.305-1.314,0.636-2.44,0.963
	c-0.221-0.628,1.119-2.709,1.658-3.29c0.167-0.181,2.696-1.86,2.99-2.498c0.295-0.634,5.242-0.875,5.878-0.875
	c0.638,0,2.157-1.321,3.676-2.642c0.392,0.048,2.206-1.174,2.547-1.565c0.169-0.193,1.307-1.165,2.482-2.174
	c1.352,0.438,2.899,1.08,3.351,0.953c0.684-0.194,3.134-0.681,3.968-2.053C64.503,15.993,61.662,16.189,61.171,16.429z
	 M70.808,14.059c1.638,0.952,3.202,2.012,4.689,3.169c-3.342,1.437-6.1,4.478-6.188,4.977c-0.111,0.625-0.296,0.917-0.626,1.175
	c-0.331,0.256-1.066,1.1-1.508,1.763c-0.441,0.659-2.608,1.098-3.71,1.098c-1.102-0.002-2.499-0.074-3.088,0.107
	c-0.588,0.184-1.91,0.587-3.489,0.073c-0.464-0.153-0.962-0.219-1.46-0.239c0.203-0.584,0.347-1.062,0.359-1.234
	c0.036-0.474,2.241-1.539,2.61-1.502c0.366,0.037,5.07-2.237,5.804-2.495c0.737-0.257,0.884-0.661,0.92-1.102
	c0.039-0.439,2.649-3.745,3.422-4.699C68.887,14.726,69.819,14.361,70.808,14.059z M32.083,33.638
	c0.444-0.772,0.481-0.733,1.986-0.808c0.355-0.019,0.815-0.07,1.315-0.149c0.724,1.051,2.384,3.795,2.943,3.862
	c0.588,0.073,2.536,0.738,2.977,1.105c0.074,0.062,0.234,0.151,0.447,0.255c-0.952,1.125-1.876,2.302-2.212,2.941
	c-0.607,1.146-1.465,1.903-2.759,2.276c-0.062-0.024-0.122-0.046-0.183-0.075c-1.921-0.9-5.799-2.629-8.973-2.357
	C29.042,38.845,31.685,34.336,32.083,33.638z M39.985,33.753c-0.657-0.994-1.717-1.308-2.442-1.504
	c0.864-0.219,1.534-0.453,1.599-0.625c0.148-0.406,1.504-1.067,1.837-0.918c0.327,0.148,1.654-0.881,2.424-1.503
	c0.772-0.625,2.425-0.514,3.749-0.548c1.321-0.037,2.717,0.771,4.151,0.187c0.148-0.063,0.316-0.118,0.486-0.172
	c-0.065,0.179-0.117,0.349-0.157,0.502c-0.33,1.36-1.03,1.726-1.689,1.909c-0.664,0.185-2.611,0.66-2.72,1.173
	c-0.068,0.31-0.147,0.708-0.335,1.058c-1.151,0.719-2.214,1.565-2.643,1.917c-0.268,0.217-0.797,0.757-1.405,1.432
	C41.826,35.915,40.74,34.904,39.985,33.753z M44.437,38.963c0.417,0.138,0.814,0.258,1.156,0.341
	c-0.393,0.244-0.785,0.5-1.168,0.772c-0.108,0.077-0.208,0.15-0.315,0.227c-0.028-0.167-0.052-0.327-0.052-0.485
	C44.056,39.642,44.207,39.336,44.437,38.963z M61.516,31.493c-1.469-0.661-2.499-0.184-4.079,0.07
	c-1.058,0.173-3.396,0.375-5.327,0.492c-0.135-0.626,1.366-2.035,1.95-2.845c0.164-0.231,0.352-0.583,0.544-0.988
	c0.8-0.029,1.619,0.018,2.395,0.145c1.984,0.334,4.554-0.033,5.069-0.323c0.514-0.295,2.72-0.331,3.049-0.697
	c0.33-0.369,1.141-0.736,2.354-1.396c0.146-0.082,0.3-0.18,0.451-0.288c0.954,0.168,2.244,0.895,2.779,0.953
	c0.7,0.074,4.004-0.806,5.037-1.025c-0.003-0.185,1.613-1.91,3.487-3.083c-0.659-0.001-2.973,1.356-3.709,2.055
	c-0.734,0.698-2.536,0.512-3.896,0.95c-0.481-0.331-1.755-0.782-2.623-0.811c0.722-0.755,1.41-1.673,1.929-2.496
	c0.714-1.126,2.479-2.879,5.128-4.538c4.307,3.477,7.908,7.789,10.552,12.697c-0.147-0.009-0.299-0.003-0.438-0.026
	c-1.141,0.108-1.325,1.025-2.097,1.103c-0.772,0.071-1.543,0.252-3.71-0.557c-2.166-0.81-6.5-0.924-8.634,0.619
	c-0.973,0.701-2.516,1.608-4.014,2.473c-0.406-0.19-0.741-0.356-0.909-0.458C66.066,33.078,62.985,32.155,61.516,31.493z
	 M83.728,20.552c0.149,0.055,0.319,0.12,0.505,0.193c0.206,0.084,0.376,0.142,0.505,0.17c0.127,0.027,0.264,0.036,0.411,0.027
	c0.094-0.004,0.199-0.032,0.31-0.08c0.109-0.049,0.248-0.142,0.409-0.279c0.239-0.201,0.357-0.411,0.36-0.633
	c0.005-0.22-0.077-0.431-0.246-0.631c-0.104-0.123-0.227-0.221-0.369-0.29c-0.142-0.069-0.277-0.096-0.411-0.076
	c-0.049,0.062-0.106,0.142-0.177,0.232c-0.064,0.089-0.136,0.167-0.218,0.236c-0.072,0.062-0.16,0.085-0.268,0.072
	c-0.104-0.011-0.209-0.077-0.308-0.194c-0.085-0.094-0.11-0.196-0.088-0.303c0.021-0.106,0.088-0.207,0.198-0.299
	c0.103-0.087,0.229-0.146,0.382-0.175c0.152-0.031,0.315-0.029,0.492,0.002c0.174,0.032,0.354,0.103,0.536,0.211
	c0.186,0.108,0.348,0.254,0.5,0.43c0.331,0.392,0.507,0.774,0.526,1.151c0.02,0.374-0.115,0.683-0.407,0.927
	c-0.138,0.12-0.282,0.206-0.43,0.261c-0.147,0.054-0.305,0.075-0.47,0.059c-0.182-0.021-0.363-0.067-0.548-0.144
	c-0.184-0.077-0.454-0.202-0.81-0.373c-0.216-0.104-0.424-0.194-0.623-0.267c-0.202-0.075-0.38-0.125-0.531-0.153l1.852,2.19
	l-0.508,0.433l-2.257-2.671l0.391-0.331c0.104,0.002,0.229,0.017,0.377,0.049c0.152,0.028,0.323,0.07,0.513,0.123
	C83.442,20.455,83.579,20.497,83.728,20.552z M80.185,11.634l3.102,2.674l-0.832,0.969l-0.213-0.185
	c0.085-0.176,0.135-0.398,0.149-0.666c0.014-0.269-0.03-0.459-0.132-0.572c-0.05-0.058-0.115-0.125-0.19-0.2
	c-0.078-0.071-0.172-0.155-0.274-0.242l-0.633-0.543l-1.372,1.593l0.454,0.391c0.144,0.124,0.262,0.2,0.351,0.232
	c0.092,0.031,0.188,0.035,0.296,0.015c0.088-0.018,0.188-0.062,0.295-0.128c0.109-0.065,0.202-0.135,0.282-0.209l0.214,0.184
	l-1.356,1.572l-0.215-0.184c0.071-0.096,0.136-0.21,0.189-0.34c0.05-0.128,0.081-0.231,0.085-0.306
	c0.005-0.122-0.021-0.23-0.075-0.316c-0.056-0.088-0.144-0.183-0.268-0.29l-0.451-0.389l-1.037,1.203
	c-0.101,0.118-0.177,0.223-0.218,0.305c-0.041,0.087-0.054,0.166-0.039,0.244c0.021,0.078,0.063,0.16,0.142,0.243
	c0.075,0.084,0.19,0.192,0.351,0.326c0.061,0.055,0.141,0.125,0.242,0.213c0.104,0.088,0.192,0.158,0.27,0.211
	c0.075,0.055,0.161,0.104,0.257,0.15c0.092,0.047,0.171,0.067,0.231,0.059c0.162-0.013,0.374-0.074,0.627-0.176
	c0.252-0.102,0.431-0.182,0.532-0.247l0.202,0.175l-1.095,1.116l-3.331-2.872l0.178-0.199c0.057,0.042,0.14,0.101,0.245,0.17
	c0.104,0.071,0.177,0.107,0.217,0.12c0.085,0.024,0.158,0.023,0.219-0.001c0.065-0.026,0.125-0.072,0.187-0.141l2.484-2.883
	c0.053-0.064,0.091-0.127,0.111-0.192c0.021-0.067,0.011-0.142-0.03-0.23c-0.028-0.068-0.075-0.148-0.148-0.242
	c-0.067-0.092-0.127-0.163-0.175-0.209L80.185,11.634z M75.802,9.368c0.328-0.076,0.653-0.085,0.986-0.024
	c0.328,0.064,0.64,0.192,0.93,0.39c0.215,0.144,0.395,0.304,0.533,0.477c0.138,0.172,0.253,0.358,0.345,0.564l0.269-0.126
	l0.25,0.167l-1.033,1.583l-0.251-0.172c0.071-0.175,0.13-0.374,0.185-0.595c0.058-0.226,0.083-0.428,0.077-0.611
	c-0.003-0.206-0.047-0.395-0.129-0.566c-0.085-0.173-0.212-0.317-0.385-0.436c-0.2-0.134-0.416-0.216-0.65-0.243
	c-0.229-0.028-0.467,0.001-0.709,0.091c-0.233,0.083-0.47,0.236-0.714,0.445c-0.241,0.214-0.47,0.479-0.685,0.794
	c-0.188,0.283-0.328,0.563-0.417,0.846c-0.085,0.281-0.124,0.556-0.115,0.821c0.013,0.264,0.079,0.509,0.192,0.726
	c0.112,0.223,0.281,0.408,0.502,0.559c0.168,0.113,0.339,0.192,0.514,0.232c0.177,0.042,0.344,0.054,0.505,0.04
	c0.164-0.023,0.327-0.063,0.48-0.127c0.155-0.062,0.307-0.143,0.446-0.246l0.159,0.267c-0.473,0.316-0.917,0.467-1.337,0.454
	c-0.418-0.011-0.828-0.151-1.234-0.427c-0.258-0.174-0.477-0.396-0.646-0.663c-0.17-0.264-0.283-0.556-0.338-0.878
	c-0.051-0.316-0.034-0.651,0.045-1.002c0.083-0.354,0.238-0.707,0.473-1.057c0.238-0.349,0.507-0.634,0.81-0.845
	C75.16,9.591,75.473,9.446,75.802,9.368z M69.966,6.09c-0.045-0.113-0.119-0.232-0.23-0.351c-0.109-0.124-0.206-0.207-0.287-0.253
	l0.119-0.237l1.347,0.684l0.833,4.944l1.138-2.244c0.139-0.277,0.228-0.494,0.269-0.661C73.19,7.806,73.19,7.681,73.147,7.6
	c-0.041-0.075-0.121-0.167-0.241-0.278c-0.121-0.111-0.217-0.189-0.288-0.229l0.12-0.236l1.921,0.973l-0.121,0.234
	c-0.063-0.026-0.169-0.061-0.312-0.088c-0.146-0.035-0.255-0.047-0.33-0.038c-0.106,0.015-0.216,0.094-0.325,0.236
	c-0.104,0.146-0.221,0.337-0.341,0.578l-1.756,3.459l-0.288-0.147l-0.903-5.315l-1.234,2.438c-0.137,0.271-0.229,0.49-0.266,0.653
	c-0.041,0.166-0.042,0.295-0.004,0.394c0.029,0.076,0.109,0.172,0.249,0.296c0.14,0.124,0.231,0.2,0.281,0.227l-0.117,0.236
	l-1.939-0.983l0.12-0.233c0.062,0.025,0.174,0.054,0.337,0.088c0.16,0.032,0.268,0.042,0.32,0.03
	c0.107-0.025,0.208-0.091,0.303-0.204c0.091-0.114,0.22-0.323,0.377-0.631l1.177-2.328c0.05-0.104,0.086-0.214,0.103-0.333
	C70.004,6.279,69.996,6.176,69.966,6.09z M65.312,8.824c0.056-0.038,0.101-0.103,0.135-0.196l1.372-3.583
	c0.03-0.081,0.042-0.154,0.039-0.219c-0.003-0.065-0.044-0.131-0.127-0.206c-0.059-0.055-0.138-0.114-0.234-0.179
	C66.4,4.377,66.32,4.329,66.253,4.298l0.093-0.247l2.229,0.851L68.479,5.15c-0.075-0.024-0.161-0.049-0.266-0.073
	c-0.105-0.025-0.201-0.038-0.284-0.042c-0.102-0.007-0.176,0.016-0.229,0.069c-0.055,0.051-0.097,0.113-0.125,0.191l-1.37,3.579
	c-0.029,0.076-0.039,0.152-0.028,0.223c0.012,0.072,0.05,0.14,0.119,0.208c0.04,0.036,0.113,0.087,0.217,0.15
	c0.101,0.064,0.188,0.113,0.263,0.145L66.683,9.85l-2.228-0.855l0.095-0.247c0.066,0.021,0.159,0.047,0.278,0.083
	c0.124,0.037,0.214,0.055,0.271,0.055C65.185,8.883,65.258,8.867,65.312,8.824z M60.745,5.983l0.295,0.082
	c-0.005,0.235,0.011,0.45,0.041,0.646c0.031,0.197,0.088,0.388,0.177,0.578c0.084,0.176,0.196,0.331,0.34,0.461
	c0.141,0.133,0.321,0.23,0.544,0.292c0.165,0.047,0.312,0.068,0.449,0.058c0.136-0.007,0.255-0.039,0.351-0.096
	c0.102-0.057,0.185-0.133,0.252-0.23c0.067-0.094,0.121-0.211,0.163-0.351c0.057-0.204,0.055-0.411-0.012-0.62
	c-0.062-0.209-0.194-0.394-0.396-0.546c-0.137-0.106-0.297-0.226-0.476-0.361c-0.179-0.131-0.331-0.254-0.459-0.361
	c-0.249-0.212-0.424-0.446-0.521-0.699c-0.101-0.255-0.101-0.55-0.004-0.888c0.055-0.195,0.145-0.363,0.272-0.508
	c0.128-0.143,0.285-0.258,0.467-0.35c0.172-0.086,0.365-0.135,0.575-0.15c0.208-0.017,0.418,0.003,0.623,0.062
	c0.233,0.066,0.434,0.164,0.599,0.29c0.162,0.125,0.308,0.255,0.433,0.398l0.22-0.205l0.286,0.083l-0.456,1.698l-0.293-0.085
	c0.004-0.207-0.002-0.41-0.016-0.605c-0.016-0.195-0.054-0.378-0.119-0.553c-0.063-0.17-0.157-0.315-0.281-0.44
	c-0.125-0.125-0.294-0.219-0.509-0.28c-0.227-0.065-0.443-0.049-0.646,0.052c-0.199,0.099-0.332,0.255-0.391,0.467
	c-0.063,0.22-0.066,0.416-0.002,0.59c0.058,0.174,0.173,0.335,0.343,0.484c0.152,0.135,0.3,0.256,0.453,0.364
	c0.149,0.11,0.294,0.224,0.432,0.336c0.127,0.103,0.244,0.212,0.356,0.332c0.109,0.116,0.196,0.244,0.264,0.374
	c0.074,0.15,0.116,0.306,0.128,0.462c0.011,0.157-0.014,0.332-0.067,0.519c-0.129,0.448-0.399,0.771-0.816,0.969
	c-0.416,0.194-0.87,0.222-1.362,0.082c-0.229-0.065-0.444-0.166-0.649-0.301c-0.21-0.137-0.382-0.278-0.52-0.425l-0.229,0.216
	L60.298,7.74L60.745,5.983z M59.299,9.513c1.672,0.383,3.309,0.859,4.896,1.438c-0.318,0.487-0.568,0.879-0.671,1.022
	c-0.343,0.492-2.743,0.782-3.575,1.419c-0.418,0.319-1.588,1.229-2.731,2.114c-1.454-0.444-2.938-0.929-3.734-1.188
	c-1.755-0.572-3.193-0.445-4.441,0.32c0.342-0.548,1.051-0.93,1.942-1.253c1.568,0.247,3.822-0.634,4.802-1.027
	c0.98-0.388,1.67-1.122,2.5-1.857C58.512,10.302,58.881,9.944,59.299,9.513z M50.034,8.452c2.718,0.003,5.375,0.275,7.949,0.779
	c-0.714,0.712-1.326,1.347-1.462,1.612c-0.342,0.686-2.938,1.567-4.457,1.465c-1.518-0.098-2.745,0.392-3.136,0.977
	c-0.382,0.577-2.643,1.526-3.197,2.161c-0.252,0.011-0.486,0.02-0.675,0.041c-0.88,0.098-6.174,3.668-7.154,4.257
	c-0.601,0.36-1.184,0.626-1.69,0.688c0-0.637-0.051-1.277-0.074-1.523c-0.035-0.44,1.473-1.909,1.693-2.645
	c0.058-0.192,0.058-0.423,0.023-0.671c0.368-0.494,0.782-0.467,1.275-0.061c0.539,0.441,3.284-2.054,3.628-2.594
	c0.32-0.5,3.215-3.449,4.337-4.375C48.063,8.498,49.041,8.451,50.034,8.452z M43.46,10.667c-0.104-0.348-0.074-1.04-0.214-1.452
	c-0.018-0.067-0.026-0.135-0.022-0.203c0.793-0.129,1.591-0.244,2.401-0.327C44.744,9.444,43.877,10.177,43.46,10.667z
	 M38.155,7.784c0.089-0.044,0.161-0.092,0.214-0.143c0.083-0.088,0.142-0.171,0.179-0.255c0.039-0.085,0.067-0.194,0.091-0.333
	c0.116-0.708,0.242-1.5,0.376-2.377c0.134-0.876,0.253-1.658,0.359-2.345l0.291-0.065l2.711,4.077
	c0.056,0.087,0.116,0.154,0.174,0.204c0.059,0.046,0.138,0.088,0.233,0.128c0.064,0.021,0.14,0.034,0.237,0.037
	c0.095,0.001,0.172,0,0.234-0.012l0.056,0.259l-2.147,0.475l-0.059-0.257c0.188-0.055,0.338-0.113,0.457-0.18
	c0.118-0.064,0.17-0.123,0.157-0.175c-0.003-0.023-0.011-0.049-0.023-0.077c-0.011-0.032-0.028-0.061-0.041-0.083l-0.686-1.062
	l-1.812,0.403c-0.032,0.185-0.057,0.344-0.068,0.479c-0.016,0.136-0.029,0.263-0.039,0.377c-0.009,0.112-0.013,0.2-0.009,0.268
	c0.001,0.07,0.007,0.125,0.014,0.166c0.024,0.098,0.118,0.157,0.283,0.176c0.163,0.018,0.343,0.013,0.537-0.022l0.059,0.26
	l-1.948,0.432L37.928,7.88C37.991,7.863,38.065,7.829,38.155,7.784z M37.319,10.376C38.902,9.877,41,9.474,42,9.164
	c0,0.002,0,0.002,0,0.002c1,0.514,0.168,1.517,0.094,2.626c-1.347,0.974-3.486,2.22-4.596,2.877
	c-0.168-0.419-0.332-0.824-0.519-1.124c-0.44-0.698,0.08-2.24,0.375-3.085C37.361,10.436,37.31,10.401,37.319,10.376z M33.864,3.988
	L33.95,4.24c-0.24,0.087-0.402,0.162-0.492,0.222c-0.089,0.065-0.125,0.121-0.11,0.172c0.008,0.015,0.022,0.034,0.05,0.066
	c0.027,0.033,0.061,0.068,0.105,0.115c0.053,0.049,0.114,0.105,0.182,0.17c0.069,0.065,0.137,0.126,0.199,0.186
	c0.183,0.172,0.366,0.343,0.555,0.511c0.187,0.167,0.429,0.386,0.732,0.655c0.16-0.722,0.282-1.281,0.36-1.682
	c0.082-0.4,0.11-0.633,0.086-0.697c-0.019-0.055-0.055-0.091-0.105-0.111c-0.052-0.017-0.115-0.027-0.185-0.023
	c-0.077,0.006-0.154,0.018-0.234,0.042c-0.083,0.019-0.159,0.039-0.228,0.056l-0.087-0.25l1.738-0.602l0.089,0.25
	c-0.041,0.016-0.098,0.054-0.176,0.113c-0.076,0.059-0.128,0.11-0.157,0.15c-0.073,0.091-0.12,0.155-0.142,0.197
	c-0.021,0.042-0.057,0.142-0.107,0.307c-0.095,0.323-0.173,0.64-0.237,0.962c-0.06,0.316-0.138,0.722-0.234,1.212
	c-0.033,0.181-0.049,0.319-0.045,0.422c0.004,0.101,0.036,0.24,0.095,0.414l0.331,0.955c0.026,0.085,0.072,0.154,0.13,0.206
	c0.054,0.047,0.127,0.076,0.226,0.085c0.054,0.003,0.15-0.005,0.288-0.021c0.134-0.017,0.243-0.039,0.321-0.062l0.084,0.25
	L34.64,9.322l-0.085-0.251c0.064-0.027,0.16-0.07,0.286-0.129c0.129-0.059,0.214-0.106,0.259-0.145
	c0.074-0.067,0.113-0.135,0.125-0.207c0.011-0.071,0.003-0.152-0.031-0.243L34.774,7.13c-0.014-0.035-0.062-0.096-0.14-0.18
	c-0.08-0.083-0.174-0.177-0.279-0.277c-0.236-0.224-0.496-0.465-0.776-0.724c-0.282-0.257-0.525-0.476-0.727-0.66
	c-0.126-0.106-0.231-0.186-0.312-0.231c-0.086-0.049-0.177-0.085-0.271-0.11c-0.07-0.018-0.144-0.019-0.231-0.012
	c-0.084,0.01-0.16,0.024-0.224,0.039l-0.089-0.25L33.864,3.988z M29.154,10.777c-0.046-0.713-0.104-1.513-0.173-2.4
	c-0.067-0.884-0.129-1.675-0.183-2.363l0.271-0.131l3.564,3.356c0.076,0.068,0.148,0.122,0.217,0.156
	c0.068,0.032,0.153,0.056,0.252,0.072c0.067,0.006,0.149,0.001,0.241-0.019c0.094-0.018,0.167-0.039,0.225-0.064l0.115,0.239
	l-1.985,0.951l-0.112-0.239c0.167-0.096,0.301-0.188,0.402-0.277c0.1-0.089,0.137-0.157,0.112-0.207
	c-0.007-0.02-0.023-0.042-0.04-0.069c-0.019-0.028-0.038-0.05-0.057-0.068l-0.909-0.882l-1.677,0.804
	c0.014,0.188,0.028,0.348,0.043,0.484c0.016,0.136,0.035,0.261,0.049,0.375c0.016,0.111,0.034,0.2,0.052,0.263
	c0.019,0.066,0.034,0.122,0.055,0.158c0.042,0.088,0.147,0.124,0.312,0.105c0.164-0.017,0.338-0.063,0.519-0.142l0.115,0.237
	l-1.8,0.865l-0.112-0.24c0.055-0.032,0.124-0.081,0.199-0.143c0.079-0.064,0.137-0.127,0.176-0.189
	c0.059-0.102,0.098-0.199,0.116-0.289C29.16,11.03,29.163,10.917,29.154,10.777z M22.575,10.465
	c0.064-0.337,0.196-0.652,0.397-0.944c0.202-0.294,0.457-0.541,0.772-0.743c0.25-0.16,0.488-0.273,0.714-0.329
	c0.229-0.06,0.436-0.092,0.637-0.096l-0.01-0.298l0.252-0.16l1.026,1.54l-0.257,0.166c-0.158-0.145-0.317-0.278-0.49-0.403
	c-0.175-0.126-0.351-0.22-0.541-0.287c-0.185-0.066-0.377-0.089-0.576-0.075c-0.198,0.017-0.399,0.092-0.605,0.223
	C23.672,9.204,23.5,9.376,23.381,9.58c-0.114,0.206-0.184,0.438-0.198,0.702c-0.016,0.254,0.026,0.535,0.124,0.839
	c0.097,0.305,0.247,0.619,0.455,0.937c0.18,0.283,0.386,0.531,0.614,0.735c0.228,0.206,0.467,0.359,0.713,0.458
	c0.25,0.105,0.506,0.147,0.77,0.129c0.265-0.018,0.52-0.107,0.769-0.264c0.183-0.121,0.333-0.256,0.449-0.41
	c0.115-0.154,0.184-0.283,0.208-0.387c-0.054-0.118-0.117-0.235-0.188-0.348c-0.068-0.11-0.128-0.206-0.179-0.28l-0.158-0.245
	c-0.055-0.089-0.116-0.16-0.184-0.213c-0.07-0.052-0.151-0.068-0.247-0.052c-0.089,0.012-0.197,0.05-0.326,0.11
	c-0.128,0.06-0.229,0.109-0.296,0.149l-0.148-0.231l1.954-1.251l0.146,0.229c-0.044,0.039-0.107,0.094-0.183,0.16
	c-0.077,0.069-0.13,0.133-0.17,0.191c-0.041,0.072-0.058,0.143-0.048,0.218c0.014,0.074,0.043,0.149,0.094,0.23l0.22,0.344
	c0.162,0.252,0.271,0.421,0.33,0.505c0.062,0.085,0.109,0.157,0.151,0.209c-0.198,0.307-0.415,0.58-0.647,0.825
	c-0.233,0.243-0.481,0.45-0.75,0.62c-0.283,0.184-0.591,0.306-0.926,0.369c-0.331,0.062-0.66,0.06-0.983-0.013
	c-0.327-0.071-0.64-0.212-0.939-0.423c-0.298-0.21-0.565-0.491-0.79-0.841c-0.218-0.339-0.364-0.689-0.435-1.052
	C22.507,11.164,22.504,10.81,22.575,10.465z M18.889,12.354l4.276,2.384c0.094,0.051,0.178,0.084,0.25,0.099
	c0.074,0.015,0.161,0.018,0.263,0.012c0.065-0.012,0.142-0.038,0.229-0.079c0.088-0.04,0.154-0.079,0.204-0.117l0.168,0.205
	l-1.692,1.407l-0.167-0.206c0.14-0.132,0.248-0.253,0.322-0.364c0.074-0.112,0.094-0.188,0.058-0.229
	c-0.012-0.02-0.033-0.037-0.056-0.06c-0.024-0.022-0.05-0.039-0.072-0.051l-1.099-0.632l-1.428,1.188
	c0.057,0.179,0.11,0.331,0.159,0.457c0.05,0.127,0.098,0.245,0.14,0.351c0.045,0.106,0.085,0.185,0.116,0.245
	c0.033,0.061,0.064,0.107,0.092,0.139c0.061,0.077,0.169,0.085,0.329,0.025c0.154-0.057,0.312-0.145,0.467-0.262l0.169,0.203
	l-1.532,1.276l-0.168-0.204c0.046-0.044,0.097-0.108,0.157-0.187c0.06-0.081,0.101-0.157,0.125-0.228
	c0.034-0.115,0.046-0.217,0.04-0.311c-0.003-0.09-0.027-0.203-0.07-0.336c-0.22-0.679-0.469-1.44-0.753-2.284
	c-0.283-0.842-0.535-1.592-0.753-2.251L18.889,12.354z M14.209,16.875c0.217-0.234,0.469-0.429,0.749-0.586
	c0.283-0.159,0.566-0.265,0.842-0.32c0.373-0.076,0.752-0.056,1.133,0.058c0.382,0.115,0.751,0.341,1.107,0.67
	c0.328,0.31,0.556,0.636,0.681,0.985c0.13,0.352,0.177,0.695,0.147,1.037c-0.036,0.344-0.129,0.677-0.285,0.998
	c-0.154,0.32-0.357,0.612-0.606,0.88L16.482,22.2l-0.192-0.182c0.047-0.051,0.107-0.125,0.178-0.221
	c0.065-0.091,0.107-0.159,0.119-0.199c0.028-0.075,0.032-0.146,0.006-0.214c-0.023-0.067-0.068-0.132-0.133-0.193l-2.792-2.606
	c-0.062-0.057-0.127-0.101-0.198-0.125c-0.068-0.024-0.146-0.021-0.232,0.015c-0.081,0.031-0.155,0.072-0.228,0.127
	c-0.075,0.054-0.138,0.102-0.186,0.145l-0.192-0.18L14.209,16.875z M16.583,31.973c-0.956,0.659-1.175-0.002-1.469-1.544
	c-0.131-0.703-0.298-1.449-0.531-2.133c1.038-1.679,2.186-3.284,3.44-4.796c0.29,1.117,0.488,2.306,0.254,2.963
	C17.836,27.712,16.439,30.722,16.583,31.973z M9.439,22.89l5.015-0.096l-2.054-1.454c-0.251-0.18-0.457-0.302-0.614-0.364
	c-0.157-0.063-0.284-0.082-0.368-0.053c-0.079,0.033-0.184,0.099-0.312,0.203c-0.127,0.1-0.212,0.184-0.269,0.25l-0.215-0.155
	l1.243-1.756l0.216,0.153c-0.04,0.057-0.083,0.156-0.135,0.296c-0.053,0.139-0.083,0.247-0.084,0.318
	c-0.003,0.111,0.061,0.229,0.188,0.356c0.124,0.125,0.299,0.27,0.521,0.426l3.162,2.24l-0.188,0.267l-5.39,0.113l2.229,1.579
	c0.25,0.178,0.453,0.296,0.611,0.361c0.155,0.062,0.285,0.083,0.388,0.057c0.078-0.017,0.187-0.082,0.328-0.2
	c0.144-0.119,0.233-0.202,0.268-0.247l0.216,0.152l-1.258,1.772l-0.214-0.153c0.037-0.058,0.08-0.164,0.136-0.319
	c0.058-0.154,0.084-0.26,0.078-0.311c-0.007-0.109-0.059-0.222-0.159-0.331c-0.097-0.109-0.287-0.264-0.569-0.462l-2.129-1.51
	c-0.091-0.065-0.198-0.114-0.313-0.149c-0.117-0.032-0.219-0.04-0.31-0.021c-0.119,0.025-0.244,0.084-0.381,0.174
	c-0.136,0.091-0.235,0.173-0.292,0.247l-0.216-0.151L9.439,22.89z M7.884,25.337l1.127,0.6L8.88,26.186
	c-0.19-0.048-0.418-0.046-0.681,0c-0.267,0.047-0.445,0.131-0.53,0.252c-0.045,0.064-0.097,0.141-0.152,0.234
	c-0.056,0.093-0.114,0.197-0.177,0.319l-0.392,0.733l1.857,0.989l0.282-0.525c0.089-0.17,0.139-0.301,0.149-0.396
	c0.012-0.096-0.006-0.194-0.05-0.292c-0.038-0.084-0.1-0.167-0.19-0.259c-0.089-0.091-0.175-0.168-0.265-0.229l0.131-0.246
	l1.83,0.973l-0.128,0.249c-0.111-0.046-0.235-0.083-0.375-0.107c-0.14-0.025-0.243-0.03-0.318-0.015
	c-0.122,0.021-0.22,0.068-0.293,0.142c-0.072,0.072-0.144,0.18-0.221,0.322l-0.28,0.528l1.399,0.743
	c0.14,0.077,0.259,0.126,0.347,0.148c0.092,0.024,0.173,0.018,0.246-0.017c0.072-0.033,0.14-0.099,0.205-0.189
	c0.064-0.094,0.146-0.232,0.244-0.415c0.038-0.071,0.088-0.167,0.152-0.286c0.062-0.117,0.112-0.22,0.145-0.305
	c0.037-0.088,0.066-0.183,0.092-0.287c0.023-0.099,0.024-0.18,0.005-0.236c-0.051-0.159-0.154-0.349-0.308-0.572
	c-0.156-0.227-0.277-0.381-0.362-0.468l0.126-0.235l1.33,0.82l-2.065,3.879l-0.235-0.125c0.033-0.066,0.069-0.158,0.113-0.275
	c0.045-0.118,0.069-0.196,0.072-0.238c0.003-0.089-0.014-0.16-0.051-0.215c-0.039-0.057-0.1-0.105-0.183-0.149l-3.355-1.788
	c-0.074-0.041-0.143-0.062-0.212-0.069c-0.07-0.005-0.141,0.022-0.217,0.081c-0.059,0.042-0.128,0.108-0.203,0.198
	c-0.076,0.087-0.133,0.161-0.167,0.217L5.96,28.955L7.884,25.337z M9.544,32.833c-0.045-0.104-0.112-0.193-0.202-0.272
	c-0.088-0.077-0.198-0.14-0.336-0.195c-0.196-0.078-0.401-0.095-0.617-0.054c-0.213,0.044-0.409,0.158-0.583,0.341
	c-0.118,0.126-0.255,0.273-0.405,0.437c-0.149,0.165-0.288,0.304-0.408,0.422c-0.233,0.228-0.484,0.376-0.747,0.448
	c-0.263,0.075-0.558,0.044-0.883-0.083c-0.188-0.076-0.345-0.182-0.478-0.324c-0.13-0.141-0.231-0.309-0.304-0.501
	c-0.065-0.18-0.096-0.375-0.092-0.586c0.005-0.21,0.049-0.413,0.128-0.612c0.091-0.228,0.204-0.416,0.347-0.566
	c0.139-0.152,0.284-0.283,0.437-0.392l-0.181-0.239l0.112-0.276l1.644,0.625l-0.112,0.281c-0.207-0.024-0.411-0.038-0.607-0.042
	c-0.193-0.008-0.384,0.014-0.562,0.061c-0.177,0.047-0.328,0.124-0.467,0.237c-0.137,0.11-0.244,0.271-0.33,0.477
	c-0.088,0.221-0.092,0.436-0.014,0.647c0.08,0.211,0.221,0.356,0.423,0.438c0.213,0.086,0.411,0.108,0.588,0.063
	c0.181-0.044,0.354-0.142,0.52-0.294c0.148-0.138,0.282-0.276,0.407-0.413c0.124-0.14,0.25-0.274,0.379-0.399
	c0.114-0.115,0.236-0.221,0.362-0.319c0.128-0.096,0.263-0.172,0.403-0.227c0.157-0.058,0.315-0.083,0.471-0.078
	c0.159,0.005,0.328,0.043,0.509,0.115c0.435,0.175,0.728,0.479,0.882,0.913c0.152,0.434,0.134,0.887-0.054,1.364
	c-0.089,0.218-0.211,0.427-0.366,0.616c-0.156,0.191-0.314,0.351-0.476,0.471l0.194,0.249L9.018,35.44l-1.703-0.625l0.111-0.28
	c0.231,0.024,0.447,0.032,0.643,0.022c0.201-0.011,0.397-0.049,0.594-0.12c0.184-0.067,0.348-0.162,0.494-0.29
	C9.3,34.02,9.417,33.85,9.501,33.637c0.064-0.161,0.097-0.307,0.104-0.444C9.613,33.058,9.589,32.939,9.544,32.833z M17.285,74.367
	c-0.074,0.281-0.168,0.567-0.272,0.854c-5.37-7.008-8.568-15.763-8.562-25.255c0.008-7.233,1.873-14.037,5.141-19.963
	c0.137,0.845,1.238,2.578,1.522,3.217c0.291,0.661,0.731,2.865,0.29,4.187c-0.441,1.325-0.296,3.454-0.151,3.16
	c0.148-0.294,0.442,1.029,0.809,1.838c0.367,0.809,0.514-0.075,0.514-0.075c0.371-1.541-0.734-2.349-0.069-4.994
	c0.665-2.646,1.472-3.38,1.472-4.996c0.002-1.552,3.529-8.581,4.33-9.532c-1.636,1.669-2.634,3.576-2.706,3.288
	c-0.073-0.295-0.514-1.838-0.293-2.719c0.099-0.384,0.476-1.318,0.955-2.355c2.512-2.575,5.348-4.829,8.453-6.688
	c-0.143,0.478-0.238,0.929-0.265,1.335c-0.147,2.255-0.541,2.987-1.573,4.848c-1.028,1.859-1.326,4.064-1.572,5.535
	c-0.221,1.326-1.72,3.216-2.263,5.121c-0.511,0.768-0.928,1.542-1.244,2.272c-0.922,2.132-1.397,1.136-1.326,3.269
	c0.074,2.13-0.519,6.869-0.595,8.633c-0.076,1.764-0.553,1.688-0.294,2.241c0.252,0.54,0.646,0.099,0.797,1.603
	c-0.644,3.261-1.372,5.146-1.795,5.779c0.696,0.954,1.173,3.088-0.444,6.32C16.521,64.521,15.6,69.772,17.285,74.367z
	 M22.512,79.788c-0.029,0.059-0.068-0.122-0.115-0.192c-0.382-0.58-1.242-1.465-1.764-1.708c-0.585-0.27-1.061-1.303-1.055-2.138
	c0.008-0.835-0.281-3.695-0.874-4.47c1.338,1.348,1.84,3.646,1.614,3.698c0.446,0.855,0.182,1.443,0.496,1.922
	C21.126,77.376,22.729,79.354,22.512,79.788z M31.797,90.725c-0.082-0.031-0.183-0.042-0.299-0.029
	c-0.118,0.011-0.226,0.062-0.325,0.154c-0.231,0.224-0.447,0.435-0.655,0.634c-0.205,0.199-0.437,0.424-0.691,0.672
	c-0.081,0.077-0.169,0.164-0.258,0.258c-0.092,0.094-0.176,0.18-0.255,0.269l-0.236-0.122l0.295-2.375l-1.759,1.626l-0.228-0.118
	c0.07-0.478,0.145-0.95,0.219-1.42c0.075-0.469,0.138-0.878,0.191-1.226c0.015-0.103-0.005-0.198-0.064-0.29
	c-0.057-0.093-0.123-0.164-0.196-0.213l0.095-0.18l1.211,0.621l-0.1,0.194c-0.061-0.029-0.133-0.053-0.211-0.072
	c-0.08-0.019-0.132-0.005-0.153,0.04c-0.006,0.004-0.01,0.021-0.016,0.05c-0.004,0.027-0.01,0.055-0.016,0.088
	c-0.039,0.223-0.083,0.472-0.131,0.746c-0.047,0.273-0.108,0.632-0.188,1.068l1.694-1.592l0.268,0.137l-0.281,2.288
	c0.204-0.207,0.406-0.402,0.602-0.593c0.196-0.191,0.375-0.37,0.536-0.541c0.04-0.042,0.072-0.078,0.107-0.113
	c0.031-0.032,0.056-0.067,0.077-0.105c0.015-0.034,0.018-0.07,0.001-0.113c-0.017-0.04-0.042-0.078-0.074-0.116
	c-0.031-0.034-0.066-0.065-0.104-0.095c-0.04-0.029-0.07-0.049-0.089-0.062l0.089-0.176l1.032,0.529L31.797,90.725z M36.394,92.478
	c-0.082-0.022-0.182-0.021-0.3,0.002c-0.115,0.025-0.217,0.09-0.304,0.192c-0.205,0.247-0.398,0.481-0.581,0.701
	c-0.183,0.221-0.385,0.471-0.612,0.747c-0.072,0.086-0.149,0.18-0.228,0.282c-0.082,0.102-0.156,0.199-0.223,0.296l-0.249-0.093
	l0.032-2.396l-1.57,1.809l-0.239-0.091c0.019-0.483,0.038-0.96,0.062-1.436c0.023-0.476,0.042-0.887,0.052-1.239
	c0.002-0.102-0.027-0.197-0.094-0.282c-0.068-0.086-0.14-0.146-0.217-0.187l0.071-0.19l1.274,0.482l-0.079,0.202
	c-0.064-0.021-0.135-0.036-0.219-0.046c-0.08-0.009-0.129,0.009-0.147,0.055c-0.001,0.007-0.007,0.024-0.008,0.051
	c-0.005,0.027-0.005,0.06-0.007,0.09c-0.015,0.228-0.028,0.479-0.046,0.757c-0.018,0.281-0.039,0.644-0.066,1.088l1.507-1.773
	l0.28,0.104l-0.028,2.304c0.182-0.226,0.359-0.441,0.535-0.654c0.171-0.209,0.331-0.409,0.472-0.597
	c0.034-0.046,0.064-0.085,0.092-0.122c0.03-0.036,0.049-0.076,0.065-0.117c0.012-0.034,0.011-0.07-0.01-0.111
	c-0.022-0.036-0.051-0.073-0.088-0.106c-0.032-0.031-0.071-0.058-0.11-0.082c-0.045-0.023-0.074-0.042-0.097-0.051l0.069-0.184
	l1.086,0.412L36.394,92.478z M41.16,93.713c-0.086-0.013-0.184-0.001-0.297,0.037c-0.113,0.036-0.207,0.109-0.284,0.223
	c-0.176,0.268-0.342,0.522-0.498,0.762s-0.334,0.511-0.527,0.809c-0.064,0.094-0.128,0.199-0.196,0.305
	c-0.068,0.111-0.132,0.218-0.189,0.32l-0.255-0.065l-0.234-2.386l-1.361,1.974l-0.247-0.064c-0.036-0.48-0.068-0.959-0.099-1.434
	c-0.03-0.474-0.057-0.885-0.083-1.239c-0.011-0.1-0.05-0.189-0.127-0.268c-0.074-0.075-0.153-0.13-0.235-0.165l0.052-0.196
	l1.318,0.341l-0.058,0.21c-0.064-0.013-0.141-0.023-0.221-0.021c-0.08,0-0.129,0.021-0.141,0.068
	c-0.004,0.008-0.004,0.026-0.001,0.054c0,0.026,0,0.058,0.002,0.092c0.01,0.223,0.021,0.478,0.035,0.756
	c0.012,0.278,0.032,0.643,0.053,1.087l1.302-1.928l0.291,0.074l0.228,2.293c0.157-0.244,0.307-0.481,0.458-0.709
	c0.149-0.228,0.285-0.443,0.405-0.647c0.029-0.047,0.054-0.093,0.078-0.13c0.023-0.042,0.042-0.081,0.051-0.123
	c0.01-0.037,0.003-0.073-0.021-0.108c-0.025-0.035-0.059-0.07-0.101-0.098c-0.033-0.029-0.074-0.052-0.121-0.071
	c-0.046-0.02-0.077-0.033-0.101-0.039l0.049-0.19l1.125,0.288L41.16,93.713z M41.982,96.641c-0.095,0.068-0.201,0.091-0.313,0.072
	c-0.117-0.023-0.206-0.08-0.276-0.175c-0.063-0.095-0.089-0.2-0.07-0.313c0.02-0.114,0.079-0.204,0.177-0.272
	c0.098-0.069,0.201-0.093,0.315-0.072c0.115,0.021,0.205,0.079,0.272,0.175c0.067,0.099,0.09,0.202,0.07,0.317
	C42.138,96.486,42.079,96.576,41.982,96.641z M46.319,95.705c-0.023,0.21-0.081,0.417-0.172,0.616
	c-0.092,0.197-0.209,0.361-0.351,0.49c-0.159,0.149-0.336,0.252-0.533,0.308c-0.195,0.062-0.408,0.078-0.643,0.053
	c-0.19-0.022-0.37-0.081-0.537-0.171c-0.165-0.093-0.308-0.217-0.428-0.372c-0.118-0.153-0.207-0.331-0.261-0.539
	c-0.056-0.207-0.071-0.434-0.044-0.679c0.055-0.474,0.238-0.845,0.544-1.116c0.313-0.269,0.689-0.378,1.138-0.327
	c0.423,0.048,0.758,0.229,1.002,0.547C46.277,94.833,46.374,95.229,46.319,95.705z M48.484,97.365L47,97.292l0.01-0.201
	c0.046-0.003,0.097-0.006,0.153-0.007c0.054-0.004,0.096-0.011,0.132-0.018c0.06-0.017,0.104-0.046,0.134-0.093
	c0.031-0.042,0.048-0.104,0.053-0.177l0.167-3.532c0.007-0.073-0.007-0.146-0.038-0.211c-0.025-0.066-0.067-0.121-0.116-0.16
	c-0.036-0.027-0.102-0.053-0.201-0.078c-0.098-0.025-0.177-0.04-0.236-0.047l0.01-0.199l1.148-0.013l0.043,0.048l-0.2,4.182
	c-0.003,0.073,0.007,0.134,0.031,0.181c0.027,0.047,0.064,0.086,0.125,0.109c0.045,0.026,0.091,0.043,0.133,0.058
	c0.045,0.012,0.094,0.021,0.148,0.027L48.484,97.365z M51.395,97.239c-0.222,0.145-0.451,0.219-0.688,0.222
	c-0.441,0.003-0.789-0.141-1.042-0.43c-0.251-0.289-0.38-0.683-0.385-1.175c-0.002-0.217,0.03-0.416,0.097-0.604
	c0.064-0.188,0.158-0.358,0.285-0.513c0.119-0.148,0.274-0.266,0.456-0.358c0.18-0.092,0.381-0.137,0.597-0.141
	c0.299-0.005,0.543,0.067,0.733,0.208c0.188,0.142,0.287,0.336,0.289,0.585c0.002,0.101-0.021,0.195-0.072,0.272
	c-0.048,0.08-0.128,0.119-0.243,0.122c-0.121,0.003-0.216-0.028-0.286-0.09c-0.066-0.061-0.099-0.128-0.1-0.206
	c-0.003-0.093,0.009-0.189,0.033-0.285c0.023-0.096,0.039-0.172,0.04-0.216c-0.036-0.062-0.091-0.104-0.166-0.126
	c-0.073-0.021-0.152-0.031-0.236-0.029c-0.099,0.001-0.194,0.022-0.281,0.066c-0.09,0.043-0.177,0.121-0.26,0.235
	c-0.072,0.103-0.136,0.244-0.18,0.419c-0.048,0.177-0.068,0.388-0.064,0.631c0.003,0.385,0.092,0.695,0.263,0.938
	c0.173,0.238,0.398,0.356,0.676,0.356c0.197-0.006,0.363-0.054,0.499-0.152c0.135-0.101,0.256-0.246,0.37-0.442l0.2,0.127
	C51.795,96.898,51.615,97.093,51.395,97.239z M54.949,97.146L54.9,97.105l-0.035-0.387l-0.019,0.005
	c-0.046,0.057-0.097,0.113-0.151,0.179c-0.055,0.064-0.123,0.127-0.196,0.18c-0.089,0.061-0.175,0.112-0.259,0.146
	c-0.085,0.039-0.204,0.063-0.362,0.076c-0.268,0.024-0.481-0.043-0.635-0.207c-0.157-0.161-0.252-0.411-0.282-0.744L52.83,94.9
	c-0.006-0.074-0.025-0.134-0.056-0.184c-0.035-0.047-0.079-0.085-0.138-0.119c-0.039-0.021-0.086-0.034-0.144-0.046
	c-0.058-0.002-0.116-0.005-0.18-0.002l-0.016-0.205l1.005-0.166l0.051,0.041l0.19,2.109c0.021,0.221,0.082,0.383,0.191,0.483
	c0.11,0.104,0.235,0.148,0.369,0.134c0.112-0.007,0.213-0.034,0.299-0.079c0.086-0.044,0.154-0.088,0.208-0.141
	c0.054-0.051,0.098-0.099,0.136-0.151c0.037-0.05,0.064-0.101,0.084-0.144l-0.154-1.721c-0.005-0.064-0.025-0.126-0.059-0.176
	s-0.077-0.09-0.132-0.122c-0.041-0.021-0.095-0.031-0.169-0.03c-0.074,0.002-0.156,0.007-0.248,0.01l-0.014-0.205l1.097-0.172
	l0.052,0.038l0.215,2.409c0.007,0.07,0.026,0.128,0.061,0.175c0.03,0.047,0.079,0.086,0.131,0.117
	c0.039,0.02,0.085,0.029,0.137,0.031c0.052,0.005,0.107,0,0.171,0l0.019,0.202L54.949,97.146z M58.261,96.676
	c-0.108,0.058-0.252,0.099-0.422,0.129c-0.253,0.042-0.441,0.007-0.567-0.108c-0.121-0.107-0.203-0.276-0.237-0.511l-0.333-2.039
	l-0.541,0.086l-0.052-0.292l0.557-0.089l-0.151-0.938l0.555-0.09l0.155,0.938l0.862-0.142l0.049,0.295l-0.857,0.138l0.271,1.684
	c0.02,0.124,0.04,0.23,0.064,0.312c0.022,0.085,0.057,0.153,0.104,0.212c0.04,0.056,0.097,0.09,0.167,0.112
	c0.07,0.018,0.16,0.018,0.271,0c0.051-0.007,0.126-0.023,0.223-0.05c0.098-0.024,0.165-0.048,0.202-0.068l0.036,0.221
	C58.493,96.553,58.374,96.621,58.261,96.676z M61.232,95.856c-0.165,0.221-0.413,0.368-0.742,0.442
	c-0.172,0.039-0.337,0.045-0.499,0.013c-0.159-0.024-0.277-0.062-0.352-0.099l-0.017,0.21l-0.226,0.05l-0.263-1.027l0.207-0.048
	c0.035,0.076,0.09,0.159,0.164,0.254c0.077,0.092,0.16,0.172,0.256,0.24c0.098,0.072,0.21,0.125,0.333,0.16
	c0.123,0.036,0.254,0.038,0.389,0.007c0.194-0.044,0.332-0.121,0.419-0.233c0.083-0.11,0.106-0.249,0.071-0.412
	c-0.021-0.085-0.053-0.154-0.1-0.206c-0.046-0.055-0.107-0.099-0.184-0.13c-0.079-0.03-0.165-0.053-0.273-0.07
	c-0.104-0.015-0.221-0.029-0.346-0.035c-0.103-0.011-0.216-0.022-0.343-0.048c-0.127-0.023-0.239-0.057-0.335-0.105
	c-0.108-0.051-0.198-0.119-0.277-0.208c-0.08-0.093-0.136-0.208-0.166-0.345c-0.055-0.243-0.012-0.47,0.13-0.682
	c0.143-0.208,0.366-0.349,0.672-0.416c0.116-0.026,0.241-0.037,0.369-0.035c0.127,0.004,0.233,0.017,0.321,0.042l0.034-0.174
	l0.217-0.049l0.26,0.946l-0.208,0.048c-0.091-0.206-0.22-0.359-0.392-0.463c-0.171-0.103-0.353-0.13-0.556-0.086
	c-0.166,0.038-0.285,0.107-0.362,0.214c-0.074,0.103-0.103,0.216-0.073,0.33c0.021,0.094,0.053,0.164,0.098,0.216
	c0.046,0.055,0.103,0.094,0.176,0.123c0.068,0.029,0.154,0.049,0.253,0.062c0.102,0.014,0.221,0.03,0.366,0.044
	c0.142,0.012,0.278,0.031,0.411,0.062c0.129,0.028,0.241,0.069,0.332,0.121c0.099,0.055,0.181,0.122,0.247,0.207
	c0.066,0.083,0.112,0.195,0.146,0.331C61.452,95.386,61.4,95.633,61.232,95.856z M65.184,94.834
	c-0.052,0.104-0.136,0.177-0.244,0.212c-0.111,0.034-0.216,0.029-0.323-0.023c-0.104-0.05-0.173-0.133-0.212-0.245
	c-0.037-0.104-0.027-0.211,0.027-0.318c0.054-0.107,0.134-0.177,0.242-0.211c0.109-0.038,0.218-0.029,0.324,0.023
	c0.105,0.051,0.175,0.135,0.211,0.243C65.248,94.625,65.237,94.732,65.184,94.834z M68.271,93.597
	c-0.154,0.215-0.342,0.366-0.562,0.45c-0.411,0.164-0.785,0.159-1.127-0.021c-0.34-0.181-0.601-0.505-0.784-0.959
	c-0.078-0.199-0.119-0.397-0.129-0.596c-0.006-0.198,0.023-0.392,0.085-0.581c0.06-0.182,0.158-0.35,0.295-0.499
	c0.138-0.151,0.31-0.267,0.508-0.348c0.279-0.11,0.529-0.135,0.758-0.069c0.228,0.065,0.388,0.211,0.479,0.442
	c0.037,0.097,0.05,0.189,0.031,0.281c-0.016,0.09-0.075,0.16-0.182,0.202c-0.113,0.042-0.211,0.051-0.298,0.017
	c-0.084-0.031-0.143-0.085-0.169-0.154c-0.035-0.086-0.057-0.178-0.071-0.279c-0.013-0.1-0.025-0.171-0.039-0.215
	c-0.059-0.046-0.126-0.064-0.199-0.059c-0.076,0.008-0.152,0.029-0.233,0.058c-0.093,0.035-0.17,0.093-0.238,0.163
	s-0.12,0.176-0.156,0.313c-0.033,0.124-0.037,0.275-0.019,0.457c0.022,0.181,0.076,0.385,0.169,0.609
	c0.138,0.357,0.336,0.616,0.581,0.779c0.248,0.164,0.501,0.192,0.758,0.09c0.185-0.074,0.323-0.183,0.413-0.32
	c0.087-0.14,0.149-0.323,0.188-0.546l0.229,0.045C68.521,93.138,68.425,93.383,68.271,93.597z M71.625,91.742
	c-0.056,0.211-0.148,0.394-0.279,0.552c-0.137,0.15-0.308,0.281-0.517,0.386c-0.177,0.084-0.354,0.132-0.545,0.14
	c-0.192,0.015-0.379-0.013-0.563-0.077c-0.179-0.067-0.351-0.171-0.51-0.317c-0.159-0.142-0.293-0.323-0.399-0.548
	c-0.212-0.429-0.257-0.84-0.142-1.233c0.116-0.394,0.377-0.69,0.78-0.89c0.384-0.185,0.763-0.212,1.139-0.076
	c0.378,0.135,0.672,0.42,0.882,0.848c0.093,0.193,0.156,0.399,0.188,0.615C71.688,91.354,71.677,91.558,71.625,91.742z M76.2,89.507
	l-0.111-0.173c0.038-0.028,0.076-0.059,0.115-0.086c0.038-0.029,0.07-0.061,0.096-0.091c0.04-0.043,0.058-0.095,0.058-0.149
	c-0.002-0.056-0.021-0.112-0.062-0.177l-0.839-1.33c-0.117-0.185-0.244-0.297-0.39-0.345c-0.146-0.047-0.279-0.029-0.402,0.048
	c-0.088,0.055-0.161,0.118-0.218,0.191c-0.059,0.072-0.104,0.154-0.138,0.241c-0.026,0.068-0.044,0.137-0.049,0.204
	c-0.005,0.065-0.008,0.119-0.007,0.156l0.939,1.493c0.039,0.062,0.079,0.104,0.128,0.131c0.043,0.023,0.097,0.031,0.162,0.023
	c0.05-0.013,0.093-0.021,0.13-0.035c0.038-0.012,0.083-0.031,0.139-0.062l0.107,0.172l-1.227,0.776l-0.11-0.172
	c0.034-0.027,0.072-0.058,0.11-0.085c0.034-0.024,0.062-0.056,0.088-0.086c0.038-0.046,0.058-0.096,0.057-0.15
	s-0.021-0.113-0.061-0.175l-0.838-1.336c-0.116-0.178-0.244-0.295-0.393-0.341c-0.145-0.044-0.277-0.028-0.4,0.05
	c-0.089,0.052-0.161,0.117-0.219,0.19c-0.057,0.077-0.104,0.157-0.136,0.241c-0.03,0.073-0.044,0.142-0.048,0.213
	c-0.006,0.068-0.006,0.124-0.012,0.156l0.934,1.48c0.038,0.059,0.079,0.104,0.129,0.127c0.051,0.023,0.107,0.031,0.17,0.023
	c0.049-0.007,0.092-0.017,0.135-0.033c0.047-0.016,0.092-0.036,0.143-0.062l0.106,0.174l-1.255,0.789l-0.108-0.173
	c0.038-0.027,0.078-0.059,0.119-0.087c0.042-0.031,0.074-0.062,0.099-0.093c0.039-0.047,0.06-0.099,0.059-0.151
	c-0.005-0.054-0.024-0.112-0.064-0.177l-1.009-1.6c-0.035-0.057-0.079-0.099-0.133-0.129c-0.055-0.025-0.111-0.043-0.179-0.048
	c-0.046,0.002-0.095,0.011-0.152,0.027c-0.06,0.019-0.113,0.042-0.17,0.074l-0.11-0.175l0.828-0.603l0.062,0.016l0.232,0.367
	l0.02-0.01c0.017-0.071,0.038-0.156,0.062-0.256c0.025-0.1,0.053-0.184,0.082-0.256c0.038-0.081,0.092-0.163,0.164-0.25
	c0.074-0.086,0.167-0.16,0.272-0.227c0.167-0.106,0.338-0.151,0.517-0.137c0.179,0.014,0.331,0.068,0.465,0.161
	c0.023-0.1,0.045-0.189,0.062-0.265c0.021-0.076,0.052-0.166,0.097-0.268c0.038-0.087,0.093-0.172,0.167-0.258
	c0.072-0.085,0.161-0.158,0.273-0.23c0.218-0.138,0.434-0.175,0.651-0.111c0.219,0.062,0.42,0.243,0.605,0.541l0.826,1.312
	c0.039,0.061,0.081,0.105,0.126,0.129c0.045,0.029,0.1,0.034,0.165,0.026c0.048-0.011,0.097-0.026,0.142-0.041
	c0.045-0.02,0.092-0.04,0.144-0.069l0.106,0.174L76.2,89.507z M49.967,91.549c-6.7-0.007-13.027-1.612-18.636-4.447
	c2.169,0.163,4.545,0.74,5.158,1.463c0.623,0.733,1.247,0.146,1.429,0.075c-0.806-0.407-2.644-1.471-3.12-1.988
	c-0.477-0.515-1.689-0.845-2.828-0.775c-1.138,0.074-6.389-2.429-7.159-5.478c2.238,1.617,4.15,2.354,5.288,2.319
	c1.139-0.036,1.286-0.073,1.911,0.518c1.871,1.762,5.692,2.607,7.162,1.509c1.469-1.101,2.571-1.026,3.381-0.621
	c0.806,0.406,1.579,0.407,1.982,0.334c0.405-0.076,1.581-0.185,1.581-0.185c-0.586-0.736-3.526-1.436-5.766-1.438
	c-2.242-0.002-2.682,0.695-4.189,0.401c-1.504-0.296-3.527-0.886-3.967-1.618c-0.441-0.735-1.026-0.994-3.265-1.952
	c-2.242-0.954-5.878-3.087-6.426-6.324c-0.548-3.233-1.021-11.57-0.723-14.731c0.297-3.158,2.117-11.084,4.125-13.332
	c1.21-1.356,2.351-1.542,3.198-1.32c0.844,0.222,2.569,0.333,3.01,0.259c0.442-0.074,5.693,1.364,6.869,1.146
	c1.175-0.222,2.09,0.091,2.388,0.037c0.991-0.179,2.939-1.685,5.15-3.288c1.774-0.3,3.599,0.15,3.927,0.724
	c0.441,0.771,1.024,1.58,1.245,1.946c0.174,0.292,1.808-0.262,2.816-0.581l-6.767,36.893l1.107,1.343
	c2.643-2.182,8.381-3.875,12.298-1.385c2.325,1.476,4.89,2.175,7.355,2.121c2.964-0.064,5.791-1.217,7.897-3.4
	c0.013-0.011,0.024-0.024,0.037-0.034c1.454-1.521,1.4-3.93-0.12-5.386c-1.516-1.453-3.93-1.4-5.382,0.119
	c-1.456,1.517-1.401,3.93,0.116,5.383c0.344,0.333,0.735,0.576,1.15,0.756c-3.077,1.351-6.861,1.045-10.12-1.029
	c-1.566-0.993-3.32-1.438-5.071-1.503l6.491-37.636l-4.608-0.824c1.21-0.256,2.345-0.509,3.066-0.702
	c3.682,0.858,7.258,2.107,8.546,2.87c-0.257-0.795-3.062-2.413-6.49-3.626c1.661-0.689,3.992-1.745,5.038-2.431
	c1.213,0.445,2.632,1.262,3.917,1.357c1.508,0.111,3.526,0.294,4.005-0.623c-0.402,0.258-2.534,0.034-3.233-0.26
	c-0.697-0.294-1.614-1.104-2.092-0.881c-0.194,0.087-0.892-0.117-1.707-0.416c1.021-0.946,3.406-2.548,4.317-2.708
	c1.065-0.184,3.746,0.444,4.741,0.373c0.991-0.074,1.651,0.661,3.012,0.479c1.25-0.167,3.52-1.721,4.992-1.908
	c2.901,5.672,4.549,12.092,4.543,18.888C91.531,72.944,72.879,91.566,49.967,91.549z M94.791,33.999
	c-0.233,0.095-0.483,0.106-0.755,0.038c-0.269-0.07-0.53-0.227-0.782-0.467c-0.011,0.447-0.081,0.796-0.216,1.046
	c-0.128,0.249-0.346,0.435-0.653,0.554c-0.386,0.157-0.786,0.122-1.203-0.104c-0.41-0.222-0.725-0.607-0.943-1.151
	c-0.202-0.513-0.236-0.972-0.103-1.381c0.134-0.409,0.401-0.694,0.806-0.857c0.3-0.117,0.584-0.126,0.854-0.025
	c0.271,0.104,0.551,0.303,0.828,0.605c0.049-0.356,0.141-0.65,0.281-0.875c0.139-0.224,0.33-0.383,0.578-0.483
	c0.376-0.148,0.758-0.114,1.137,0.102c0.384,0.222,0.663,0.553,0.839,0.998c0.179,0.447,0.203,0.853,0.071,1.226
	C95.398,33.599,95.153,33.855,94.791,33.999z"/>
<path d="M22.308,22.809c0.03-0.03,0.058-0.061,0.088-0.09C22.372,22.736,22.341,22.77,22.308,22.809z"/>
<path d="M94.655,31.516c-0.237-0.099-0.479-0.096-0.734,0.001c-0.241,0.1-0.407,0.275-0.5,0.532
	c-0.094,0.255-0.142,0.664-0.139,1.226c0.18,0.129,0.377,0.197,0.59,0.2s0.442-0.047,0.697-0.145
	c0.283-0.113,0.478-0.288,0.587-0.526c0.111-0.237,0.113-0.49,0.01-0.748C95.061,31.794,94.891,31.613,94.655,31.516z"/>
<path d="M91.252,32.342c-0.342,0.133-0.576,0.344-0.705,0.627c-0.129,0.285-0.126,0.591,0.003,0.924
	c0.129,0.317,0.321,0.537,0.583,0.649c0.259,0.113,0.528,0.113,0.813,0c0.147-0.059,0.261-0.141,0.349-0.246
	c0.085-0.106,0.146-0.239,0.19-0.391c0.041-0.147,0.07-0.344,0.086-0.583c0.016-0.238,0.025-0.497,0.031-0.771
	c-0.208-0.175-0.426-0.278-0.652-0.308C91.72,32.213,91.488,32.246,91.252,32.342z"/>
<path d="M45.378,94.356c-0.1-0.086-0.226-0.14-0.379-0.157c-0.158-0.02-0.298,0.009-0.42,0.072c-0.118,0.062-0.223,0.16-0.307,0.286
	c-0.08,0.117-0.144,0.256-0.187,0.414c-0.046,0.156-0.076,0.309-0.093,0.46c-0.022,0.195-0.028,0.381-0.012,0.55
	c0.012,0.17,0.045,0.326,0.102,0.463c0.053,0.144,0.13,0.252,0.227,0.341c0.097,0.085,0.226,0.14,0.379,0.156
	c0.256,0.029,0.476-0.071,0.652-0.304c0.179-0.23,0.292-0.565,0.34-1.001c0.02-0.152,0.021-0.317,0.011-0.491
	c-0.012-0.177-0.044-0.325-0.09-0.452C45.549,94.558,45.475,94.446,45.378,94.356z"/>
<path d="M36.096,46.003c-7.048,0.155-12.662,6.018-12.509,13.068c0.156,7.051,6.014,12.661,13.068,12.509
	c7.049-0.153,12.664-6.016,12.51-13.064C49.008,51.467,43.148,45.852,36.096,46.003z M36.614,69.84
	c-1.654,0.035-3.237-0.298-4.659-0.924l-0.436-20.044c1.398-0.687,2.96-1.087,4.617-1.125c6.091-0.132,11.151,4.713,11.285,10.807
	C47.554,64.644,42.707,69.709,36.614,69.84z"/>
<path d="M80.831,54.161c1.52,1.453,3.93,1.4,5.387-0.117c1.447-1.514,1.4-3.916-0.104-5.371l0.007-0.008
	c-2.47-2.362-5.709-3.624-9.125-3.55c-3.413,0.076-6.597,1.473-8.961,3.943c-2.364,2.469-3.621,5.708-3.548,9.124
	s1.477,6.599,3.94,8.96c2.468,2.364,5.71,3.624,9.127,3.55c3.411-0.074,6.599-1.474,8.958-3.943l-1.255-1.201
	c-2.043,2.132-4.791,3.34-7.743,3.404c-1.629,0.036-3.21-0.284-4.66-0.917l-0.435-20.06c1.422-0.696,2.986-1.082,4.613-1.117
	c1.739-0.039,3.42,0.328,4.949,1.045c-0.465,0.197-0.899,0.485-1.267,0.873C79.261,50.294,79.312,52.706,80.831,54.161z"/>
</svg>
